<mxfile host="app.diagrams.net" modified="2023-05-26T12:30:53.664Z" agent="Mozilla/5.0 (Macintosh; Intel Mac OS X 10_15_7) AppleWebKit/537.36 (KHTML, like Gecko) Chrome/112.0.0.0 Safari/537.36" version="21.3.2" etag="TExex8I63tzYQDgaEkUV" type="device">
  <diagram id="C5RBs43oDa-KdzZeNtuy" name="Page-1">
    <mxGraphModel dx="803" dy="1815" grid="1" gridSize="10" guides="1" tooltips="1" connect="1" arrows="1" fold="1" page="1" pageScale="1" pageWidth="827" pageHeight="1169" math="0" shadow="0">
      <root>
        <mxCell id="WIyWlLk6GJQsqaUBKTNV-0" />
        <mxCell id="WIyWlLk6GJQsqaUBKTNV-1" parent="WIyWlLk6GJQsqaUBKTNV-0" />
        <mxCell id="WIyWlLk6GJQsqaUBKTNV-2" value="" style="rounded=0;html=1;jettySize=auto;orthogonalLoop=1;fontSize=11;endArrow=block;endFill=0;endSize=8;strokeWidth=1;shadow=0;labelBackgroundColor=none;edgeStyle=orthogonalEdgeStyle;" parent="WIyWlLk6GJQsqaUBKTNV-1" source="WIyWlLk6GJQsqaUBKTNV-3" edge="1">
          <mxGeometry relative="1" as="geometry">
            <mxPoint x="220" y="170" as="targetPoint" />
          </mxGeometry>
        </mxCell>
        <mxCell id="WIyWlLk6GJQsqaUBKTNV-3" value="wholeIceCream을 호출한다. &lt;br&gt;(너비 :11, 높이: 8, 막대길이: 4)" style="rounded=1;whiteSpace=wrap;html=1;fontSize=12;glass=0;strokeWidth=1;shadow=0;" parent="WIyWlLk6GJQsqaUBKTNV-1" vertex="1">
          <mxGeometry x="120" y="80" width="200" height="40" as="geometry" />
        </mxCell>
        <mxCell id="lAC9uIUrGkth9nZanbsx-0" value="시작" style="ellipse;whiteSpace=wrap;html=1;" vertex="1" parent="WIyWlLk6GJQsqaUBKTNV-1">
          <mxGeometry x="160" y="-60" width="120" height="80" as="geometry" />
        </mxCell>
        <mxCell id="lAC9uIUrGkth9nZanbsx-1" value="" style="endArrow=classic;html=1;rounded=0;exitX=0.5;exitY=1;exitDx=0;exitDy=0;entryX=0.5;entryY=0;entryDx=0;entryDy=0;" edge="1" parent="WIyWlLk6GJQsqaUBKTNV-1" source="lAC9uIUrGkth9nZanbsx-0" target="WIyWlLk6GJQsqaUBKTNV-3">
          <mxGeometry width="50" height="50" relative="1" as="geometry">
            <mxPoint x="270" y="520" as="sourcePoint" />
            <mxPoint x="320" y="470" as="targetPoint" />
          </mxGeometry>
        </mxCell>
        <mxCell id="lAC9uIUrGkth9nZanbsx-2" value="makeIceCream을 호출한다.&lt;br&gt;(전달 받은 너비와 높이를 넣어준다.)" style="rounded=1;whiteSpace=wrap;html=1;" vertex="1" parent="WIyWlLk6GJQsqaUBKTNV-1">
          <mxGeometry x="120" y="170" width="200" height="70" as="geometry" />
        </mxCell>
        <mxCell id="lAC9uIUrGkth9nZanbsx-3" value="" style="endArrow=classic;html=1;rounded=0;exitX=0.5;exitY=1;exitDx=0;exitDy=0;" edge="1" parent="WIyWlLk6GJQsqaUBKTNV-1" source="lAC9uIUrGkth9nZanbsx-2">
          <mxGeometry width="50" height="50" relative="1" as="geometry">
            <mxPoint x="310" y="520" as="sourcePoint" />
            <mxPoint x="220" y="280" as="targetPoint" />
          </mxGeometry>
        </mxCell>
        <mxCell id="lAC9uIUrGkth9nZanbsx-4" value="너비만큼 for문이 돌았나?" style="rhombus;whiteSpace=wrap;html=1;" vertex="1" parent="WIyWlLk6GJQsqaUBKTNV-1">
          <mxGeometry x="120" y="280" width="200" height="80" as="geometry" />
        </mxCell>
        <mxCell id="lAC9uIUrGkth9nZanbsx-6" value="" style="endArrow=classic;html=1;rounded=0;" edge="1" parent="WIyWlLk6GJQsqaUBKTNV-1">
          <mxGeometry relative="1" as="geometry">
            <mxPoint x="320" y="319.5" as="sourcePoint" />
            <mxPoint x="420" y="319.5" as="targetPoint" />
          </mxGeometry>
        </mxCell>
        <mxCell id="lAC9uIUrGkth9nZanbsx-7" value="NO" style="edgeLabel;resizable=0;html=1;align=center;verticalAlign=middle;" connectable="0" vertex="1" parent="lAC9uIUrGkth9nZanbsx-6">
          <mxGeometry relative="1" as="geometry" />
        </mxCell>
        <mxCell id="lAC9uIUrGkth9nZanbsx-8" value="Line에 *(별표시)&lt;br&gt;를 더해준다" style="rounded=1;whiteSpace=wrap;html=1;" vertex="1" parent="WIyWlLk6GJQsqaUBKTNV-1">
          <mxGeometry x="420" y="290" width="120" height="60" as="geometry" />
        </mxCell>
        <mxCell id="lAC9uIUrGkth9nZanbsx-9" value="" style="endArrow=classic;html=1;rounded=0;exitX=0.5;exitY=0;exitDx=0;exitDy=0;" edge="1" parent="WIyWlLk6GJQsqaUBKTNV-1" source="lAC9uIUrGkth9nZanbsx-8">
          <mxGeometry width="50" height="50" relative="1" as="geometry">
            <mxPoint x="470" y="270" as="sourcePoint" />
            <mxPoint x="220" y="260" as="targetPoint" />
            <Array as="points">
              <mxPoint x="480" y="260" />
            </Array>
          </mxGeometry>
        </mxCell>
        <mxCell id="lAC9uIUrGkth9nZanbsx-13" value="" style="endArrow=classic;html=1;rounded=0;" edge="1" parent="WIyWlLk6GJQsqaUBKTNV-1">
          <mxGeometry relative="1" as="geometry">
            <mxPoint x="220" y="360" as="sourcePoint" />
            <mxPoint x="220" y="420" as="targetPoint" />
          </mxGeometry>
        </mxCell>
        <mxCell id="lAC9uIUrGkth9nZanbsx-14" value="Yes" style="edgeLabel;resizable=0;html=1;align=center;verticalAlign=middle;" connectable="0" vertex="1" parent="lAC9uIUrGkth9nZanbsx-13">
          <mxGeometry relative="1" as="geometry" />
        </mxCell>
        <mxCell id="lAC9uIUrGkth9nZanbsx-16" value="높이 만큼 for문이 돌았는가?" style="rhombus;whiteSpace=wrap;html=1;" vertex="1" parent="WIyWlLk6GJQsqaUBKTNV-1">
          <mxGeometry x="120" y="420" width="200" height="80" as="geometry" />
        </mxCell>
        <mxCell id="lAC9uIUrGkth9nZanbsx-17" value="" style="endArrow=classic;html=1;rounded=0;" edge="1" parent="WIyWlLk6GJQsqaUBKTNV-1">
          <mxGeometry relative="1" as="geometry">
            <mxPoint x="320" y="459.71000000000004" as="sourcePoint" />
            <mxPoint x="420" y="459.71000000000004" as="targetPoint" />
          </mxGeometry>
        </mxCell>
        <mxCell id="lAC9uIUrGkth9nZanbsx-18" value="NO" style="edgeLabel;resizable=0;html=1;align=center;verticalAlign=middle;" connectable="0" vertex="1" parent="lAC9uIUrGkth9nZanbsx-17">
          <mxGeometry relative="1" as="geometry" />
        </mxCell>
        <mxCell id="lAC9uIUrGkth9nZanbsx-19" value="Line을 출력한다." style="rounded=1;whiteSpace=wrap;html=1;" vertex="1" parent="WIyWlLk6GJQsqaUBKTNV-1">
          <mxGeometry x="420" y="430" width="120" height="60" as="geometry" />
        </mxCell>
        <mxCell id="lAC9uIUrGkth9nZanbsx-20" value="" style="endArrow=classic;html=1;rounded=0;exitX=0.5;exitY=0;exitDx=0;exitDy=0;" edge="1" parent="WIyWlLk6GJQsqaUBKTNV-1">
          <mxGeometry width="50" height="50" relative="1" as="geometry">
            <mxPoint x="480" y="430" as="sourcePoint" />
            <mxPoint x="220" y="400" as="targetPoint" />
            <Array as="points">
              <mxPoint x="480" y="400" />
            </Array>
          </mxGeometry>
        </mxCell>
        <mxCell id="lAC9uIUrGkth9nZanbsx-21" value="" style="endArrow=classic;html=1;rounded=0;" edge="1" parent="WIyWlLk6GJQsqaUBKTNV-1">
          <mxGeometry relative="1" as="geometry">
            <mxPoint x="219.71" y="500" as="sourcePoint" />
            <mxPoint x="219.71" y="560" as="targetPoint" />
          </mxGeometry>
        </mxCell>
        <mxCell id="lAC9uIUrGkth9nZanbsx-22" value="Yes" style="edgeLabel;resizable=0;html=1;align=center;verticalAlign=middle;" connectable="0" vertex="1" parent="lAC9uIUrGkth9nZanbsx-21">
          <mxGeometry relative="1" as="geometry" />
        </mxCell>
        <mxCell id="lAC9uIUrGkth9nZanbsx-23" value="make(bar)를 호출한다.&lt;br&gt;(전달 받은 막대의 개수를 넣어준다.)" style="rounded=1;whiteSpace=wrap;html=1;" vertex="1" parent="WIyWlLk6GJQsqaUBKTNV-1">
          <mxGeometry x="120" y="560" width="200" height="70" as="geometry" />
        </mxCell>
        <mxCell id="lAC9uIUrGkth9nZanbsx-24" value="높이 만큼 for문이 돌았는가?" style="rhombus;whiteSpace=wrap;html=1;" vertex="1" parent="WIyWlLk6GJQsqaUBKTNV-1">
          <mxGeometry x="120" y="670" width="200" height="80" as="geometry" />
        </mxCell>
        <mxCell id="lAC9uIUrGkth9nZanbsx-26" value="" style="endArrow=classic;html=1;rounded=0;exitX=0.5;exitY=1;exitDx=0;exitDy=0;" edge="1" parent="WIyWlLk6GJQsqaUBKTNV-1">
          <mxGeometry width="50" height="50" relative="1" as="geometry">
            <mxPoint x="219.71" y="630" as="sourcePoint" />
            <mxPoint x="219.71" y="670" as="targetPoint" />
          </mxGeometry>
        </mxCell>
        <mxCell id="lAC9uIUrGkth9nZanbsx-27" value="" style="endArrow=classic;html=1;rounded=0;" edge="1" parent="WIyWlLk6GJQsqaUBKTNV-1">
          <mxGeometry relative="1" as="geometry">
            <mxPoint x="320" y="709.71" as="sourcePoint" />
            <mxPoint x="420" y="709.71" as="targetPoint" />
          </mxGeometry>
        </mxCell>
        <mxCell id="lAC9uIUrGkth9nZanbsx-28" value="NO" style="edgeLabel;resizable=0;html=1;align=center;verticalAlign=middle;" connectable="0" vertex="1" parent="lAC9uIUrGkth9nZanbsx-27">
          <mxGeometry relative="1" as="geometry" />
        </mxCell>
        <mxCell id="lAC9uIUrGkth9nZanbsx-29" value="막대(&amp;nbsp; &amp;nbsp; | |&amp;nbsp; &amp;nbsp;&amp;nbsp;&lt;span style=&quot;background-color: initial;&quot;&gt;)를&lt;br&gt;&amp;nbsp;출력한다.&lt;/span&gt;" style="rounded=1;whiteSpace=wrap;html=1;" vertex="1" parent="WIyWlLk6GJQsqaUBKTNV-1">
          <mxGeometry x="420" y="680" width="120" height="60" as="geometry" />
        </mxCell>
        <mxCell id="lAC9uIUrGkth9nZanbsx-30" value="" style="endArrow=classic;html=1;rounded=0;exitX=0.5;exitY=0;exitDx=0;exitDy=0;" edge="1" parent="WIyWlLk6GJQsqaUBKTNV-1">
          <mxGeometry width="50" height="50" relative="1" as="geometry">
            <mxPoint x="480" y="680" as="sourcePoint" />
            <mxPoint x="220" y="650" as="targetPoint" />
            <Array as="points">
              <mxPoint x="480" y="650" />
            </Array>
          </mxGeometry>
        </mxCell>
        <mxCell id="lAC9uIUrGkth9nZanbsx-32" value="" style="endArrow=classic;html=1;rounded=0;" edge="1" parent="WIyWlLk6GJQsqaUBKTNV-1">
          <mxGeometry relative="1" as="geometry">
            <mxPoint x="219.71" y="750" as="sourcePoint" />
            <mxPoint x="219.71" y="810" as="targetPoint" />
          </mxGeometry>
        </mxCell>
        <mxCell id="lAC9uIUrGkth9nZanbsx-33" value="Yes" style="edgeLabel;resizable=0;html=1;align=center;verticalAlign=middle;" connectable="0" vertex="1" parent="lAC9uIUrGkth9nZanbsx-32">
          <mxGeometry relative="1" as="geometry" />
        </mxCell>
        <mxCell id="lAC9uIUrGkth9nZanbsx-34" value="끝" style="ellipse;whiteSpace=wrap;html=1;" vertex="1" parent="WIyWlLk6GJQsqaUBKTNV-1">
          <mxGeometry x="160" y="810" width="120" height="80" as="geometry" />
        </mxCell>
      </root>
    </mxGraphModel>
  </diagram>
</mxfile>
